<svg width="110" height="31" viewBox="0 0 110 31" fill="none" xmlns="http://www.w3.org/2000/svg">
<path d="M56.147 13.8203H51.4808C51.3956 13.2166 51.2216 12.6804 50.9588 12.2116C50.696 11.7358 50.3587 11.331 49.9467 10.9972C49.5348 10.6634 49.0589 10.4077 48.5192 10.2301C47.9865 10.0526 47.4077 9.96378 46.7827 9.96378C45.6534 9.96378 44.6697 10.2443 43.8317 10.8054C42.9936 11.3594 42.3438 12.169 41.8821 13.2344C41.4205 14.2926 41.1896 15.5781 41.1896 17.0909C41.1896 18.6463 41.4205 19.9531 41.8821 21.0114C42.3509 22.0696 43.0043 22.8686 43.8423 23.4084C44.6804 23.9482 45.6499 24.218 46.7507 24.218C47.3686 24.218 47.9403 24.1364 48.4659 23.973C48.9986 23.8097 49.4709 23.5717 49.8828 23.2592C50.2947 22.9396 50.6357 22.5526 50.9055 22.098C51.1825 21.6435 51.3743 21.125 51.4808 20.5426L56.147 20.5639C56.0263 21.5653 55.7244 22.5312 55.2415 23.4616C54.7656 24.3849 54.1229 25.2124 53.3132 25.9439C52.5107 26.6683 51.5518 27.2436 50.4368 27.6697C49.3288 28.0888 48.0753 28.2983 46.6761 28.2983C44.7301 28.2983 42.9901 27.858 41.456 26.9773C39.929 26.0966 38.7216 24.8217 37.8338 23.1527C36.9531 21.4837 36.5128 19.4631 36.5128 17.0909C36.5128 14.7116 36.9602 12.6875 37.8551 11.0185C38.75 9.34943 39.9645 8.07812 41.4986 7.20455C43.0327 6.32386 44.7585 5.88352 46.6761 5.88352C47.9403 5.88352 49.1122 6.06108 50.1918 6.41619C51.2784 6.77131 52.2408 7.28977 53.0788 7.97159C53.9169 8.64631 54.5987 9.47372 55.1243 10.4538C55.657 11.4339 55.9979 12.5561 56.147 13.8203ZM63.908 18.5398V28H59.3697V6.18182H63.7802V14.5234H63.9719C64.3413 13.5575 64.9379 12.8011 65.7617 12.2543C66.5856 11.7003 67.619 11.4233 68.8619 11.4233C69.9982 11.4233 70.989 11.6719 71.8342 12.169C72.6864 12.6591 73.3469 13.3658 73.8157 14.2891C74.2915 15.2053 74.5259 16.3026 74.5188 17.581V28H69.9805V18.3906C69.9876 17.3821 69.7319 16.5973 69.2134 16.0362C68.7021 15.4751 67.9847 15.1946 67.0614 15.1946C66.4435 15.1946 65.8967 15.326 65.4208 15.5888C64.9521 15.8516 64.5827 16.2351 64.3129 16.7393C64.0501 17.2365 63.9151 17.8366 63.908 18.5398ZM82.7566 28.3089C81.7125 28.3089 80.7821 28.1278 79.9654 27.7656C79.1486 27.3963 78.5023 26.853 78.0265 26.1357C77.5577 25.4112 77.3233 24.5092 77.3233 23.4297C77.3233 22.5206 77.4902 21.7571 77.824 21.1392C78.1578 20.5213 78.6124 20.0241 79.1877 19.6477C79.763 19.2713 80.4164 18.9872 81.1479 18.7955C81.8865 18.6037 82.6607 18.4688 83.4703 18.3906C84.4221 18.2912 85.1891 18.1989 85.7715 18.1136C86.3539 18.0213 86.7765 17.8864 87.0392 17.7088C87.302 17.5312 87.4334 17.2685 87.4334 16.9205V16.8565C87.4334 16.1818 87.2203 15.6598 86.7942 15.2905C86.3752 14.9212 85.7786 14.7365 85.0044 14.7365C84.1877 14.7365 83.5378 14.9176 83.0549 15.2798C82.5719 15.6349 82.2523 16.0824 82.0961 16.6222L77.8986 16.2812C78.1117 15.2869 78.5307 14.4276 79.1557 13.7031C79.7807 12.9716 80.5868 12.4105 81.574 12.0199C82.5684 11.6222 83.7189 11.4233 85.0257 11.4233C85.9348 11.4233 86.8049 11.5298 87.6358 11.7429C88.4739 11.956 89.2161 12.2862 89.8624 12.7337C90.5158 13.1811 91.0307 13.7564 91.4071 14.4595C91.7836 15.1555 91.9718 15.9901 91.9718 16.9631V28H87.6678V25.7308H87.54C87.2772 26.2422 86.9256 26.6932 86.4853 27.0838C86.0449 27.4673 85.5158 27.7692 84.8979 27.9893C84.28 28.2024 83.5662 28.3089 82.7566 28.3089ZM84.0563 25.1768C84.7239 25.1768 85.3134 25.0455 85.8248 24.7827C86.3361 24.5128 86.7374 24.1506 87.0286 23.696C87.3198 23.2415 87.4654 22.7266 87.4654 22.1513V20.4148C87.3233 20.5071 87.128 20.5923 86.8794 20.6705C86.638 20.7415 86.3645 20.8089 86.0591 20.8729C85.7537 20.9297 85.4483 20.983 85.1429 21.0327C84.8375 21.0753 84.5605 21.1143 84.312 21.1499C83.7793 21.228 83.3141 21.3523 82.9164 21.5227C82.5186 21.6932 82.2097 21.924 81.9895 22.2152C81.7694 22.4993 81.6593 22.8544 81.6593 23.2805C81.6593 23.8984 81.883 24.3707 82.3304 24.6974C82.785 25.017 83.3603 25.1768 84.0563 25.1768ZM104.197 11.6364V15.0455H94.3422V11.6364H104.197ZM96.5794 7.71591H101.118V22.9716C101.118 23.3906 101.182 23.7173 101.309 23.9517C101.437 24.179 101.615 24.3388 101.842 24.4311C102.077 24.5234 102.346 24.5696 102.652 24.5696C102.865 24.5696 103.078 24.5518 103.291 24.5163C103.504 24.4737 103.667 24.4418 103.781 24.4205L104.495 27.7976C104.268 27.8686 103.948 27.9503 103.536 28.0426C103.124 28.142 102.623 28.2024 102.034 28.2237C100.94 28.2663 99.9814 28.1207 99.1575 27.7869C98.3407 27.4531 97.7051 26.9347 97.2505 26.2315C96.796 25.5284 96.5723 24.6406 96.5794 23.5682V7.71591Z" fill="#8B5CF6"/>
<path d="M0 0.123291H16.6575C21.0758 0.123291 24.6575 3.70501 24.6575 8.12329V18.1507C24.6575 22.569 21.0758 26.1507 16.6575 26.1507H8C3.58172 26.1507 0 22.569 0 18.1507V0.123291Z" fill="#633BBC"/>
<path d="M4.10962 13.6027C4.10962 9.18446 7.69134 5.60274 12.1096 5.60274H20.7672C25.1854 5.60274 28.7672 9.18446 28.7672 13.6027V30.2603H12.1096C7.69134 30.2603 4.10962 26.6785 4.10962 22.2603V13.6027Z" fill="#07847E"/>
</svg>
