<svg width="73" height="24" viewBox="0 0 73 24" fill="none" xmlns="http://www.w3.org/2000/svg">
<path d="M40.098 9.54688H36.9872C36.9304 9.14441 36.8144 8.78693 36.6392 8.47443C36.464 8.1572 36.2391 7.88731 35.9645 7.66477C35.6899 7.44223 35.3726 7.27178 35.0128 7.15341C34.6577 7.03504 34.2718 6.97585 33.8551 6.97585C33.1023 6.97585 32.4465 7.16288 31.8878 7.53693C31.3291 7.90625 30.8958 8.44602 30.5881 9.15625C30.2803 9.86174 30.1264 10.7187 30.1264 11.7273C30.1264 12.7642 30.2803 13.6354 30.5881 14.3409C30.9006 15.0464 31.3362 15.5791 31.8949 15.9389C32.4536 16.2988 33.0999 16.4787 33.8338 16.4787C34.2457 16.4787 34.6269 16.4242 34.9773 16.3153C35.3324 16.2064 35.6473 16.0478 35.9219 15.8395C36.1965 15.6264 36.4238 15.3684 36.6037 15.0653C36.7884 14.7623 36.9162 14.4167 36.9872 14.0284L40.098 14.0426C40.0175 14.7102 39.8163 15.3542 39.4943 15.9744C39.1771 16.59 38.7486 17.1416 38.2088 17.6293C37.6738 18.1122 37.0346 18.4957 36.2912 18.7798C35.5526 19.0592 34.7169 19.1989 33.7841 19.1989C32.4867 19.1989 31.3267 18.9053 30.304 18.3182C29.286 17.7311 28.4811 16.8812 27.8892 15.7685C27.3021 14.6558 27.0085 13.3087 27.0085 11.7273C27.0085 10.1411 27.3068 8.79167 27.9034 7.67898C28.5 6.56629 29.3097 5.71875 30.3324 5.13636C31.3551 4.54924 32.5057 4.25568 33.7841 4.25568C34.6269 4.25568 35.4081 4.37405 36.1278 4.6108C36.8523 4.84754 37.4938 5.19318 38.0526 5.64773C38.6113 6.09754 39.0658 6.64915 39.4162 7.30256C39.7713 7.95597 39.9986 8.70407 40.098 9.54688ZM45.272 12.6932V19H42.2464V4.45455H45.1868V10.0156H45.3146C45.5608 9.37169 45.9586 8.86742 46.5078 8.50284C47.0571 8.13352 47.746 7.94886 48.5746 7.94886C49.3321 7.94886 49.9927 8.11458 50.5561 8.44602C51.1243 8.77273 51.5646 9.24384 51.8771 9.85938C52.1944 10.4702 52.3506 11.2017 52.3459 12.054V19H49.3203V12.5938C49.325 11.9214 49.1546 11.3982 48.8089 11.0241C48.468 10.6501 47.9898 10.4631 47.3743 10.4631C46.9624 10.4631 46.5978 10.5507 46.2805 10.7259C45.968 10.901 45.7218 11.1567 45.5419 11.4929C45.3667 11.8243 45.2768 12.2244 45.272 12.6932ZM57.8377 19.206C57.1417 19.206 56.5214 19.0852 55.9769 18.8438C55.4324 18.5975 55.0015 18.2353 54.6843 17.7571C54.3718 17.2741 54.2156 16.6728 54.2156 15.9531C54.2156 15.3471 54.3268 14.8381 54.5494 14.4261C54.7719 14.0142 55.0749 13.6828 55.4585 13.4318C55.842 13.1809 56.2776 12.9915 56.7653 12.8636C57.2577 12.7358 57.7738 12.6458 58.3136 12.5938C58.948 12.5275 59.4594 12.4659 59.8477 12.4091C60.2359 12.3475 60.5176 12.2576 60.6928 12.1392C60.868 12.0208 60.9556 11.8456 60.9556 11.6136V11.571C60.9556 11.1212 60.8136 10.7732 60.5295 10.527C60.2501 10.2808 59.8524 10.1577 59.3363 10.1577C58.7918 10.1577 58.3585 10.2784 58.0366 10.5199C57.7146 10.7566 57.5015 11.0549 57.3974 11.4148L54.5991 11.1875C54.7411 10.5246 55.0205 9.9517 55.4371 9.46875C55.8538 8.98106 56.3912 8.60701 57.0494 8.34659C57.7122 8.08144 58.4793 7.94886 59.3505 7.94886C59.9566 7.94886 60.5366 8.01989 61.0906 8.16193C61.6493 8.30398 62.1441 8.52415 62.5749 8.82244C63.0105 9.12074 63.3538 9.50426 63.6048 9.97301C63.8557 10.437 63.9812 10.9934 63.9812 11.642V19H61.1119V17.4872H61.0266C60.8514 17.8281 60.6171 18.1288 60.3235 18.3892C60.0299 18.6449 59.6772 18.8461 59.2653 18.9929C58.8533 19.1349 58.3775 19.206 57.8377 19.206ZM58.7042 17.1179C59.1493 17.1179 59.5423 17.0303 59.8832 16.8551C60.2241 16.6752 60.4916 16.4337 60.6857 16.1307C60.8799 15.8277 60.9769 15.4844 60.9769 15.1009V13.9432C60.8822 14.0047 60.752 14.0616 60.5863 14.1136C60.4253 14.161 60.243 14.206 60.0394 14.2486C59.8358 14.2865 59.6322 14.322 59.4286 14.3551C59.225 14.3835 59.0404 14.4096 58.8746 14.4332C58.5195 14.4853 58.2094 14.5682 57.9442 14.6818C57.6791 14.7955 57.4731 14.9493 57.3263 15.1435C57.1796 15.3329 57.1062 15.5696 57.1062 15.8537C57.1062 16.2656 57.2553 16.5805 57.5536 16.7983C57.8567 17.0114 58.2402 17.1179 58.7042 17.1179ZM72.131 8.09091V10.3636H65.5614V8.09091H72.131ZM67.0529 5.47727H70.0785V15.6477C70.0785 15.9271 70.1211 16.1449 70.2063 16.3011C70.2915 16.4527 70.4099 16.5592 70.5614 16.6207C70.7177 16.6823 70.8976 16.7131 71.1012 16.7131C71.2433 16.7131 71.3853 16.7012 71.5273 16.6776C71.6694 16.6491 71.7783 16.6278 71.854 16.6136L72.3299 18.8651C72.1784 18.9124 71.9653 18.9669 71.6907 19.0284C71.4161 19.0947 71.0823 19.1349 70.6893 19.1491C69.9601 19.1776 69.3209 19.0805 68.7717 18.858C68.2272 18.6354 67.8034 18.2898 67.5004 17.821C67.1973 17.3523 67.0482 16.7604 67.0529 16.0455V5.47727Z" fill="#8B5CF6"/>
<path d="M0 0H10C14.4183 0 18 3.58172 18 8V11C18 15.4183 14.4183 19 10 19H8C3.58172 19 0 15.4183 0 11V0Z" fill="#633BBC"/>
<path d="M3 12C3 7.58172 6.58172 4 11 4H13C17.4183 4 21 7.58172 21 12V22H11C6.58172 22 3 18.4183 3 14V12Z" fill="#07847E"/>
</svg>
